# xmcd
#
# Track frame offsets:
#	300
#	18487
#	35737
#	50362
#	66862
#	82294
#	100022
#	124505
#	140685
#	159532
#	175146
#	193495
#	215498
#	232699
#	249273
#
# Disc length: 3581 seconds
#
# Revision: 1
# Processed by: cddbd v1.5.2PL0 Copyright (c) Steve Scherf et al.
# Submitted via: audiograbber 1.83.01
#
DISCID=d30df90f
DTITLE=Various Artist - sc8998
DYEAR=1900
DGENRE=country
TTITLE0=trace adkins - ladies love country boys
TTITLE1=steve holy - brand new girlfriend
TTITLE2=terri clark - dirty girl
TTITLE3=rascal flatts - stand
TTITLE4=montgomery gentry - lucky man
TTITLE5=john mellencamp - our country
TTITLE6=keith urban - raise the barn
TTITLE7=toby keith - high maintenance woman
TTITLE8=the wreckers - tennessee
TTITLE9=little big town - we go together
TTITLE10=craig morgan - little bit of life
TTITLE11=carrie underwood - wasted
TTITLE12=billy currington - good directions
TTITLE13=bucky covington - different world
TTITLE14=miranda lambert - famous in a small town
EXTD=
EXTT0=
EXTT1=
EXTT2=
EXTT3=
EXTT4=
EXTT5=
EXTT6=
EXTT7=
EXTT8=
EXTT9=
EXTT10=
EXTT11=
EXTT12=
EXTT13=
EXTT14=
PLAYORDER=
